<svg xmlns="http://www.w3.org/2000/svg" id="clock" viewBox="0 0 300 300" width="300" height="300"><defs><style>.cls-1{fill:#fff}</style></defs><path d="M150 2a148 148 0 1 0 148 148A148 148 0 0 0 150 2zm84.23 92.59l25.65-14.78a5.92 5.92 0 1 1 5.9 10.26l-25.63 14.78a5.92 5.92 0 1 1-5.92-10.26zm-90.15-74.83a5.92 5.92 0 1 1 11.84 0v29.6a5.92 5.92 0 1 1-11.84 0zM81.93 32.08A5.9 5.9 0 0 1 90 34.25l14.8 25.63a5.92 5.92 0 1 1-10.24 5.92l-14.8-25.64a5.92 5.92 0 0 1 2.17-8.08zM13.84 150a5.92 5.92 0 0 1 5.92-5.92h29.6a5.92 5.92 0 1 1 0 11.84h-29.6a5.92 5.92 0 0 1-5.92-5.92zm52 55.45l-25.64 14.8A5.92 5.92 0 0 1 34.24 210l25.63-14.79a5.92 5.92 0 1 1 5.92 10.25zM68 102.64a5.93 5.93 0 0 1-8.09 2.16L34.26 90a5.92 5.92 0 1 1 5.92-10.25l25.63 14.8a5.93 5.93 0 0 1 2.19 8.09zm36.81 137.47L90 265.74a5.92 5.92 0 1 1-10.25-5.93l14.81-25.62a5.92 5.92 0 1 1 10.25 5.92zm51.09 40.14a5.92 5.92 0 1 1-11.84 0v-29.6a5.92 5.92 0 1 1 11.84 0zM218 268a5.92 5.92 0 0 1-8.09-2.18l-14.78-25.63a5.92 5.92 0 1 1 10.25-5.92l14.79 25.64A5.93 5.93 0 0 1 218 268zm2.27-227.74L205.5 65.83a5.92 5.92 0 1 1-10.25-5.92l14.82-25.63a5.92 5.92 0 1 1 10.24 5.93zm47.58 177.92a5.91 5.91 0 0 1-8.09 2.16l-25.62-14.8a5.93 5.93 0 1 1 5.93-10.26l25.62 14.82a5.91 5.91 0 0 1 2.2 8.03zM280.24 156h-29.59a5.92 5.92 0 1 1 0-11.84h29.6a5.92 5.92 0 0 1 0 11.84z" class="cls-1"/></svg>